IKResults
version=1
nRows=10
nColumns=40
inDegrees=yes

Units are S.I. units (second, meters, Newtons, ...)
Angles are in degrees.

endheader
time	pelvis_tilt	pelvis_list	pelvis_rotation	pelvis_tx	pelvis_ty	pelvis_tz	hip_flexion_r	hip_adduction_r	hip_rotation_r	knee_angle_r	knee_angle_r_beta	ankle_angle_r	subtalar_angle_r	mtp_angle_r	hip_flexion_l	hip_adduction_l	hip_rotation_l	knee_angle_l	knee_angle_l_beta	ankle_angle_l	subtalar_angle_l	mtp_angle_l	lumbar_extension	lumbar_bending	lumbar_rotation	arm_flex_r	arm_add_r	arm_rot_r	elbow_flex_r	pro_sup_r	wrist_flex_r	wrist_dev_r	arm_flex_l	arm_add_l	arm_rot_l	elbow_flex_l	pro_sup_l	wrist_flex_l	wrist_dev_l
      0.00000000	     11.95268489	     -1.20078300	      2.04585695	     -0.70113538	      0.93362572	      1.40129709	     14.31310530	     -3.37381419	    -13.63201801	    -37.76827047	     -0.65918067	      5.75565800	     -9.22883718	     -1.35975068	    -19.93688276	     -1.61294103	     10.29881069	    -15.19692975	     -0.26523646	     16.69979377	      1.69411958	     -5.01529430	    -25.78383986	      0.88928469	     -8.46358182	    -13.80203345	    -11.60519854	      4.50109179	     30.40070381	     89.95437384	      0.00000000	      0.00000000	     13.71417630	     13.97968565	      1.78450473	     34.08465541	     89.95437384	      0.00000000	      0.00000000
      0.01000000	     12.00920906	     -1.30040631	      2.46548442	     -0.68879618	      0.93164603	      1.40121533	     14.67164481	     -3.28591220	    -14.97600818	    -34.78844125	     -0.60717284	      5.49634094	     -8.06835026	     -1.47932432	    -20.89098583	     -1.37094390	      9.96943345	    -15.08567998	     -0.26329479	     17.13770930	      1.92297120	     -5.59282584	    -25.80036734	      1.13552269	     -8.83039664	    -14.36939485	    -11.54072371	      4.29358741	     30.36621042	     89.95437384	      0.00000000	      0.00000000	     14.39280648	     14.18869460	      1.79583298	     35.87105253	     89.95437384	      0.00000000	      0.00000000
      0.02000000	     11.94472493	     -1.29707128	      2.78884612	     -0.67628897	      0.92929842	      1.40138577	     15.15153550	     -3.34949532	    -16.44162734	    -31.94845660	     -0.55760576	      5.27867125	     -6.71362495	     -1.80249512	    -21.72749107	     -1.24820074	      9.66596186	    -15.00424027	     -0.26187339	     17.48386977	      2.21416375	     -6.06331085	    -25.64499039	      1.21308308	     -9.15115309	    -14.97982365	    -11.45682126	      4.04400889	     30.41777817	     89.95437384	      0.00000000	      0.00000000	     15.01124361	     14.42933377	      1.73183824	     37.64133122	     89.95437384	      0.00000000	      0.00000000
      0.03000000	     11.79544377	     -1.23143157	      3.17946936	     -0.66382128	      0.92674811	      1.40135994	     15.69220074	     -3.57502417	    -18.34583670	    -29.18186154	     -0.50931957	      4.89645417	     -5.18968113	     -2.29264496	    -22.39710876	     -1.15885981	      9.20081733	    -15.03863545	     -0.26247370	     17.82059317	      2.54385125	     -6.53876449	    -25.40740215	      1.26502862	     -9.57630740	    -15.52290163	    -11.39904886	      3.79375087	     30.44518547	     89.95437384	      0.00000000	      0.00000000	     15.57960748	     14.64363815	      1.76306782	     39.40254247	     89.95437384	      0.00000000	      0.00000000
      0.04000000	     11.22884440	     -0.85025955	      2.88494742	     -0.65136157	      0.92327299	      1.40200161	     17.08495688	     -4.01972079	    -19.63053694	    -27.23169321	     -0.47528271	      4.98110517	     -4.94700911	     -2.27976216	    -22.63081083	     -1.63432158	      9.40268504	    -15.15013819	     -0.26441979	     17.98170506	      2.52443784	     -6.53039469	    -24.72879648	      0.73829919	     -9.35910886	    -16.14879483	    -11.41626452	      3.73940759	     30.46886366	     89.95437384	      0.00000000	      0.00000000	     16.33328798	     14.65199899	      1.77053837	     40.78326258	     89.95437384	      0.00000000	      0.00000000
      0.05000000	     11.58413184	     -1.23883913	      3.93796484	     -0.63825902	      0.92146335	      1.40181185	     16.46767843	     -3.87892593	    -23.26337215	    -23.96708017	     -0.41830446	      4.53491562	     -1.54832089	     -3.43753976	    -23.79202123	     -0.71693543	      8.37663439	    -15.28008566	     -0.26668780	     18.35448626	      3.03456673	     -7.16624747	    -25.01277381	      1.48729289	    -10.23221589	    -16.60406303	    -11.22443734	      3.02504700	     30.54164022	     89.95437384	      0.00000000	      0.00000000	     16.63856709	     15.01838338	      1.69667357	     42.90561871	     89.95437384	      0.00000000	      0.00000000
      0.06000000	     11.30400308	     -1.23507778	      4.12390185	     -0.62540473	      0.91854910	      1.40259263	     17.09880774	     -3.96380915	    -25.73885494	    -21.79241022	     -0.38034931	      4.24739123	      0.47079903	     -4.21583458	    -24.23903036	     -0.52074377	      8.09430025	    -15.57973163	     -0.27191761	     18.71382471	      3.07872785	     -7.54357141	    -24.65723665	      1.47393948	    -10.46402379	    -16.87435628	    -11.08234415	      2.63675309	     30.23608835	     89.95437384	      0.00000000	      0.00000000	     16.97821318	     15.27757141	      1.70311575	     44.76347837	     89.95437384	      0.00000000	      0.00000000
      0.07000000	     11.27642313	     -1.25973848	      4.49140335	     -0.61202679	      0.91592493	      1.40297199	     17.54594171	     -4.42877883	    -29.73494079	    -20.48611610	     -0.35755018	      4.10809188	      4.94959442	     -7.15351564	    -24.96007965	     -0.16616385	      7.81394323	    -15.88027400	     -0.27716307	     18.55202043	      2.73086880	     -8.68097318	    -24.49310579	      1.60710608	    -10.67951491	    -17.39848602	    -11.04449309	      2.26215968	     30.34351010	     89.95437384	      0.00000000	      0.00000000	     17.38742453	     15.39506604	      1.60590747	     46.42557312	     89.95437384	      0.00000000	      0.00000000
      0.08000000	     10.97752292	     -1.48179498	      4.78162168	     -0.59884771	      0.91311130	      1.40397285	     18.13647278	     -4.12618938	    -32.05892046	    -18.82093924	     -0.32848736	      3.39780373	      6.61467310	     -7.83237069	    -25.20934703	      0.35826182	      7.34689856	    -16.55858116	     -0.28900176	     18.80113960	      3.00952654	     -8.91418587	    -24.12019582	      1.85522791	    -10.88562201	    -17.58007021	    -10.90451327	      1.83156254	     30.02139182	     89.95437384	      0.00000000	      0.00000000	     17.59931285	     15.53328321	      1.83446821	     48.24255482	     89.95437384	      0.00000000	      0.00000000
      0.09000000	     10.85637386	     -1.69847227	      5.10470020	     -0.58527037	      0.91058936	      1.40485202	     18.59394785	     -3.97536521	    -34.41874647	    -17.94887267	     -0.31326693	      3.06060337	      9.01330714	     -9.01874332	    -25.63625803	      0.92957783	      6.98771085	    -17.25787281	     -0.30120670	     18.67346279	      2.90852615	     -9.27581808	    -23.87397061	      2.13401148	    -11.01880673	    -17.84276853	    -10.83462592	      1.49732928	     29.85186643	     89.95437384	      0.00000000	      0.00000000	     17.80466715	     15.60410668	      1.92588398	     49.93771395	     89.95437384	      0.00000000	      0.00000000
